<svg width="562" height="69" viewBox="0 0 562 69" fill="none" xmlns="http://www.w3.org/2000/svg">
<path d="M15.56 68H0.215673L23.596 0.273164H42.0489L65.3961 68H50.0518L33.087 15.7498H32.5579L15.56 68ZM14.601 41.3789H50.8455V52.5564H14.601V41.3789ZM114.273 17.2049L96.5148 68H80.6413L62.8828 17.2049H77.7642L88.3135 53.5485H88.8426L99.3588 17.2049H114.273ZM142.796 68.9921C137.659 68.9921 133.217 67.9008 129.469 65.7182C125.743 63.5135 122.866 60.4491 120.838 56.5248C118.809 52.5785 117.795 48.0038 117.795 42.8009C117.795 37.5538 118.809 32.9681 120.838 29.0438C122.866 25.0975 125.743 22.0331 129.469 19.8504C133.217 17.6458 137.659 16.5435 142.796 16.5435C147.933 16.5435 152.364 17.6458 156.09 19.8504C159.838 22.0331 162.726 25.0975 164.754 29.0438C166.782 32.9681 167.797 37.5538 167.797 42.8009C167.797 48.0038 166.782 52.5785 164.754 56.5248C162.726 60.4491 159.838 63.5135 156.09 65.7182C152.364 67.9008 147.933 68.9921 142.796 68.9921ZM142.862 58.0791C145.199 58.0791 147.15 57.4177 148.715 56.0949C150.281 54.7501 151.46 52.9202 152.254 50.6053C153.07 48.2904 153.477 45.6559 153.477 42.7016C153.477 39.7474 153.07 37.1129 152.254 34.798C151.46 32.4831 150.281 30.6532 148.715 29.3084C147.15 27.9636 145.199 27.2911 142.862 27.2911C140.503 27.2911 138.519 27.9636 136.909 29.3084C135.322 30.6532 134.121 32.4831 133.305 34.798C132.511 37.1129 132.114 39.7474 132.114 42.7016C132.114 45.6559 132.511 48.2904 133.305 50.6053C134.121 52.9202 135.322 54.7501 136.909 56.0949C138.519 57.4177 140.503 58.0791 142.862 58.0791ZM195.674 68.8267C191.816 68.8267 188.322 67.8347 185.191 65.8505C182.083 63.8442 179.614 60.901 177.784 57.0208C175.976 53.1186 175.072 48.3345 175.072 42.6686C175.072 36.8483 176.009 32.0091 177.883 28.151C179.757 24.2708 182.248 21.3717 185.357 19.4536C188.487 17.5135 191.915 16.5435 195.641 16.5435C198.485 16.5435 200.855 17.0285 202.751 17.9985C204.669 18.9465 206.213 20.1371 207.381 21.5701C208.572 22.9811 209.475 24.37 210.093 25.7369H210.523V0.273164H224.577V68H210.688V59.8648H210.093C209.431 61.2758 208.494 62.6758 207.282 64.0647C206.091 65.4316 204.537 66.567 202.619 67.4709C200.723 68.3748 198.408 68.8267 195.674 68.8267ZM200.139 57.6161C202.41 57.6161 204.328 56.9988 205.893 55.7642C207.48 54.5075 208.693 52.7548 209.531 50.5061C210.39 48.2574 210.82 45.6228 210.82 42.6024C210.82 39.5821 210.401 36.9585 209.564 34.7318C208.726 32.5051 207.513 30.7855 205.926 29.573C204.339 28.3604 202.41 27.7541 200.139 27.7541C197.824 27.7541 195.873 28.3824 194.285 29.6391C192.698 30.8957 191.497 32.6374 190.681 34.8641C189.865 37.0908 189.457 39.6703 189.457 42.6024C189.457 45.5567 189.865 48.1692 190.681 50.44C191.519 52.6887 192.72 54.4524 194.285 55.7311C195.873 56.9878 197.824 57.6161 200.139 57.6161ZM250.248 38.6341V68H236.16V0.273164H249.851V26.1668H250.446C251.593 23.1685 253.444 20.8205 256.002 19.1229C258.559 17.4033 261.767 16.5435 265.625 16.5435C269.153 16.5435 272.228 17.3151 274.852 18.8584C277.497 20.3796 279.548 22.5732 281.003 25.4392C282.48 28.2832 283.207 31.6894 283.185 35.6578V68H269.097V38.1711C269.12 35.0405 268.326 32.6043 266.716 30.8627C265.129 29.121 262.902 28.2502 260.036 28.2502C258.118 28.2502 256.421 28.658 254.944 29.4737C253.489 30.2895 252.342 31.48 251.504 33.0453C250.689 34.5885 250.27 36.4515 250.248 38.6341ZM308.756 68.959C305.516 68.959 302.627 68.3968 300.092 67.2725C297.557 66.126 295.551 64.4395 294.073 62.2128C292.618 59.9641 291.891 57.1641 291.891 53.8131C291.891 50.9911 292.409 48.6211 293.445 46.7031C294.481 44.785 295.892 43.2418 297.678 42.0733C299.464 40.9049 301.492 40.023 303.763 39.4277C306.056 38.8325 308.459 38.4136 310.972 38.1711C313.926 37.8624 316.307 37.5758 318.115 37.3113C319.923 37.0247 321.235 36.6058 322.05 36.0546C322.866 35.5035 323.274 34.6877 323.274 33.6075V33.409C323.274 31.3146 322.613 29.6942 321.29 28.5478C319.989 27.4014 318.137 26.8282 315.734 26.8282C313.199 26.8282 311.181 27.3904 309.682 28.5147C308.183 29.6171 307.191 31.006 306.706 32.6815L293.677 31.6233C294.338 28.5368 295.639 25.8691 297.579 23.6204C299.519 21.3496 302.021 19.6079 305.086 18.3954C308.172 17.1608 311.744 16.5435 315.8 16.5435C318.622 16.5435 321.323 16.8742 323.902 17.5356C326.504 18.197 328.808 19.2221 330.814 20.6111C332.842 22 334.441 23.7858 335.609 25.9684C336.777 28.1289 337.362 30.7194 337.362 33.7397V68H324.002V60.9561H323.605C322.789 62.5435 321.698 63.9434 320.331 65.156C318.964 66.3465 317.321 67.2835 315.403 67.9669C313.485 68.6283 311.27 68.959 308.756 68.959ZM312.791 59.2365C314.863 59.2365 316.693 58.8287 318.28 58.0129C319.868 57.1752 321.113 56.0508 322.017 54.6398C322.921 53.2288 323.373 51.6305 323.373 49.8447V44.4543C322.932 44.7409 322.326 45.0055 321.554 45.248C320.805 45.4685 319.956 45.6779 319.008 45.8763C318.06 46.0527 317.112 46.2181 316.164 46.3724C315.216 46.5047 314.356 46.6259 313.585 46.7362C311.931 46.9787 310.487 47.3645 309.252 47.8936C308.018 48.4227 307.059 49.1392 306.375 50.0431C305.692 50.925 305.35 52.0273 305.35 53.3501C305.35 55.2681 306.045 56.7342 307.434 57.7484C308.845 58.7405 310.63 59.2365 312.791 59.2365ZM356.526 68.8598C354.343 68.8598 352.469 68.0882 350.904 66.5449C349.361 64.9796 348.589 63.1057 348.589 60.9231C348.589 58.7625 349.361 56.9106 350.904 55.3674C352.469 53.8241 354.343 53.0525 356.526 53.0525C358.642 53.0525 360.494 53.8241 362.081 55.3674C363.669 56.9106 364.462 58.7625 364.462 60.9231C364.462 62.3781 364.088 63.712 363.338 64.9245C362.61 66.115 361.651 67.074 360.461 67.8016C359.27 68.5071 357.959 68.8598 356.526 68.8598ZM398.979 68.9921C393.776 68.9921 389.3 67.8898 385.553 65.6851C381.827 63.4584 378.961 60.3719 376.954 56.4256C374.97 52.4793 373.978 47.9377 373.978 42.8009C373.978 37.5979 374.981 33.0343 376.988 29.11C379.016 25.1637 381.893 22.0882 385.619 19.8835C389.345 17.6568 393.776 16.5435 398.913 16.5435C403.344 16.5435 407.224 17.3482 410.553 18.9576C413.882 20.567 416.517 22.8267 418.457 25.7369C420.397 28.647 421.466 32.0642 421.665 35.9885H408.371C407.996 33.4531 407.004 31.4138 405.394 29.8706C403.807 28.3053 401.724 27.5226 399.144 27.5226C396.962 27.5226 395.055 28.1179 393.423 29.3084C391.814 30.4769 390.557 32.1855 389.653 34.4342C388.749 36.683 388.297 39.4057 388.297 42.6024C388.297 45.8433 388.738 48.5991 389.62 50.8699C390.524 53.1407 391.792 54.8713 393.423 56.0618C395.055 57.2523 396.962 57.8476 399.144 57.8476C400.754 57.8476 402.198 57.5169 403.476 56.8555C404.777 56.1941 405.846 55.2351 406.684 53.9784C407.544 52.6997 408.106 51.1675 408.371 49.3817H421.665C421.444 53.2619 420.386 56.6791 418.49 59.6334C416.616 62.5655 414.026 64.8584 410.719 66.5119C407.412 68.1653 403.498 68.9921 398.979 68.9921ZM453.635 68.9921C448.498 68.9921 444.056 67.9008 440.308 65.7182C436.582 63.5135 433.705 60.4491 431.677 56.5248C429.648 52.5785 428.634 48.0038 428.634 42.8009C428.634 37.5538 429.648 32.9681 431.677 29.0438C433.705 25.0975 436.582 22.0331 440.308 19.8504C444.056 17.6458 448.498 16.5435 453.635 16.5435C458.772 16.5435 463.203 17.6458 466.929 19.8504C470.677 22.0331 473.565 25.0975 475.593 29.0438C477.621 32.9681 478.636 37.5538 478.636 42.8009C478.636 48.0038 477.621 52.5785 475.593 56.5248C473.565 60.4491 470.677 63.5135 466.929 65.7182C463.203 67.9008 458.772 68.9921 453.635 68.9921ZM453.701 58.0791C456.038 58.0791 457.989 57.4177 459.554 56.0949C461.12 54.7501 462.299 52.9202 463.093 50.6053C463.909 48.2904 464.316 45.6559 464.316 42.7016C464.316 39.7474 463.909 37.1129 463.093 34.798C462.299 32.4831 461.12 30.6532 459.554 29.3084C457.989 27.9636 456.038 27.2911 453.701 27.2911C451.342 27.2911 449.358 27.9636 447.748 29.3084C446.161 30.6532 444.96 32.4831 444.144 34.798C443.35 37.1129 442.953 39.7474 442.953 42.7016C442.953 45.6559 443.35 48.2904 444.144 50.6053C444.96 52.9202 446.161 54.7501 447.748 56.0949C449.358 57.4177 451.342 58.0791 453.701 58.0791ZM487.796 68V17.2049H501.222V26.1668H501.818C502.876 23.1905 504.639 20.8425 507.109 19.1229C509.578 17.4033 512.532 16.5435 515.971 16.5435C519.455 16.5435 522.42 17.4143 524.867 19.156C527.314 20.8756 528.946 23.2125 529.761 26.1668H530.291C531.327 23.2566 533.201 20.9307 535.912 19.1891C538.646 17.4253 541.876 16.5435 545.602 16.5435C550.342 16.5435 554.189 18.0537 557.143 21.074C560.119 24.0724 561.608 28.3273 561.608 33.839V68H547.553V36.6168C547.553 33.7949 546.803 31.6784 545.304 30.2674C543.805 28.8564 541.931 28.151 539.682 28.151C537.125 28.151 535.13 28.9667 533.697 30.5981C532.264 32.2075 531.547 34.335 531.547 36.9806V68H517.889V36.3192C517.889 33.8279 517.173 31.8437 515.74 30.3666C514.329 28.8895 512.466 28.151 510.151 28.151C508.586 28.151 507.175 28.5478 505.918 29.3415C504.684 30.1131 503.703 31.2044 502.975 32.6154C502.247 34.0043 501.884 35.6357 501.884 37.5097V68H487.796Z" fill="black"/>
</svg>
