<svg width="100" height="118" viewBox="0 0 100 118" fill="none" xmlns="http://www.w3.org/2000/svg">
<path fill-rule="evenodd" clip-rule="evenodd" d="M94.2907 109.336H0.215515V0.0625H94.2907V109.336Z" fill="#0086CB"/>
<path fill-rule="evenodd" clip-rule="evenodd" d="M47.0554 61.7418C30.5544 61.7418 17.1779 49.5077 17.1779 34.4172C17.1779 19.3255 30.5544 7.09253 47.0554 7.09253C63.5563 7.09253 76.9316 19.3255 76.9316 34.4172C76.9316 49.5065 63.5563 61.7418 47.0554 61.7418Z" fill="#E31E24"/>
<path fill-rule="evenodd" clip-rule="evenodd" d="M89.13 104.254H5.77344V81.745H89.13V104.254Z" fill="#FEFEFE"/>
<path fill-rule="evenodd" clip-rule="evenodd" d="M15.491 88.0312L17.8035 88.674C17.6481 89.2662 17.4027 89.762 17.07 90.1592C16.7372 90.5575 16.3184 90.8571 15.8238 91.0592C15.3304 91.2613 14.6984 91.3635 13.9365 91.3635C13.0077 91.3635 12.2458 91.239 11.66 90.9934C11.0729 90.7467 10.5615 90.3107 10.135 89.6892C9.70977 89.0688 9.49522 88.2721 9.49522 87.3027C9.49522 86.0091 9.87036 85.0138 10.6219 84.3206C11.3722 83.6262 12.4385 83.2784 13.8132 83.2784C14.8885 83.2784 15.7338 83.4769 16.3505 83.8753C16.9672 84.2736 17.4245 84.8846 17.7239 85.7083L15.3921 86.183C15.3099 85.9468 15.2225 85.7705 15.1352 85.6613C14.9887 85.4768 14.8063 85.3334 14.5943 85.2347C14.381 85.1349 14.1408 85.0867 13.8761 85.0867C13.28 85.0867 12.8214 85.3076 12.5028 85.7458C12.2638 86.0737 12.1405 86.586 12.1405 87.2863C12.1405 88.1546 12.2856 88.748 12.5721 89.0699C12.8586 89.3919 13.2646 89.5517 13.7836 89.5517C14.2885 89.5517 14.6714 89.4213 14.9296 89.1628C15.1853 88.9054 15.3741 88.5271 15.4923 88.0324L15.491 88.0312ZM18.7529 87.3215C18.7529 86.0467 19.1435 85.0526 19.9182 84.3441C20.6955 83.6344 21.7785 83.2784 23.1647 83.2784C24.5869 83.2784 25.6828 83.6285 26.4523 84.3253C27.2206 85.0209 27.606 86.002 27.606 87.2581C27.606 88.1711 27.4351 88.9231 27.1011 89.5047C26.7658 90.0875 26.2776 90.5434 25.6442 90.8688C25.0108 91.1955 24.2182 91.3565 23.27 91.3565C22.3065 91.3565 21.5074 91.2166 20.8766 90.937C20.2484 90.6562 19.7332 90.2109 19.3414 89.6034C18.9495 88.9971 18.7529 88.2357 18.7529 87.3215ZM21.3943 87.3321C21.3943 88.1217 21.5537 88.6904 21.8735 89.0347C22.1922 89.3778 22.6315 89.5505 23.1827 89.5505C23.7492 89.5505 24.1912 89.3813 24.4982 89.0453C24.8091 88.708 24.9659 88.1017 24.9659 87.2275C24.9659 86.4908 24.8027 85.9526 24.479 85.6142C24.1565 85.277 23.7158 85.1067 23.1583 85.1067C22.6277 85.1067 22.1986 85.2782 21.8774 85.6237C21.5562 85.9656 21.3943 86.5378 21.3943 87.3321ZM28.9986 83.4111H32.4712L33.8125 88.1652L35.1486 83.4111H38.6096V91.2237H36.4526V85.2665L34.7799 91.2237H32.8284L31.1621 85.2665V91.2237H28.9999L28.9986 83.4111ZM40.2798 83.4111H44.6684C45.623 83.4111 46.3398 83.6191 46.8152 84.0351C47.288 84.4487 47.5282 85.0432 47.5282 85.8081C47.5282 86.5977 47.2687 87.2158 46.751 87.6588C46.2332 88.1017 45.438 88.3238 44.3755 88.3238H42.9315V91.2249H40.2798V83.4111ZM42.9315 86.7411H43.579C44.0877 86.7411 44.4449 86.6612 44.6504 86.5002C44.856 86.3392 44.9588 86.1313 44.9588 85.8798C44.9588 85.6342 44.8675 85.4262 44.6915 85.2547C44.5117 85.0855 44.1751 84.9986 43.6843 84.9986H42.9315V86.7411ZM54.4683 83.4111H57.1033V88.07C57.1033 88.5294 57.0236 88.9677 56.8669 89.379C56.7114 89.7855 56.4635 90.1486 56.1269 90.4541C55.7916 90.7619 55.4383 90.9781 55.0695 91.1027C54.5569 91.2754 53.9416 91.3635 53.2221 91.3635C52.8059 91.3635 52.3511 91.3353 51.8603 91.2836C51.3708 91.2319 50.9584 91.125 50.6282 90.9664C50.2994 90.8089 49.9962 90.581 49.7212 90.2908C49.4476 90.0005 49.2587 89.6986 49.1585 89.3907C48.9979 88.8949 48.9144 88.4542 48.9144 88.07V83.4111H51.5481V88.1805C51.5481 88.6058 51.6792 88.9419 51.9348 89.1792C52.1918 89.4189 52.5515 89.5399 53.0114 89.5399C53.4649 89.5399 53.8234 89.4213 54.0816 89.1851C54.3373 88.9513 54.467 88.614 54.467 88.1805L54.4683 83.4111ZM58.2518 83.4111H66.2762V85.3417H63.5821V91.2237H60.942V85.3417H58.2518V83.4111ZM67.4646 83.4111H74.5383V85.0796H70.1111V86.3216H74.2184V87.9161H70.1111V89.4542H74.668V91.2237H67.4646V83.4111ZM76.1236 91.2237V83.4111H80.5225C81.3383 83.4111 81.964 83.4769 82.3931 83.6038C82.8222 83.7307 83.1729 83.9693 83.435 84.3147C83.6996 84.6602 83.8332 85.0831 83.8332 85.5813C83.8332 86.0161 83.7317 86.3886 83.5313 86.7035C83.3296 87.016 83.0496 87.2745 82.6976 87.4672C82.4702 87.5918 82.1618 87.6952 81.77 87.7751C82.0847 87.8714 82.3147 87.9701 82.4586 88.0641C82.5524 88.1287 82.6975 88.2651 82.88 88.4742C83.065 88.6834 83.1857 88.8478 83.25 88.9595L84.527 91.2249H81.5426L80.1332 88.8373C79.9521 88.5294 79.7928 88.3238 79.654 88.2345C79.4665 88.1147 79.2455 88.0547 79.0078 88.0547H78.7727V91.2249L76.1236 91.2237ZM78.774 86.5766H79.8879C80.0086 86.5766 80.2411 86.539 80.5867 86.4708C80.7589 86.4368 80.9066 86.3557 81.0158 86.2253C81.125 86.096 81.1816 85.9433 81.1816 85.7717C81.1816 85.5191 81.0929 85.3264 80.9195 85.1924C80.7448 85.0573 80.4133 84.988 79.9341 84.988H78.774V86.5766ZM9.00317 94.5572H16.0756V96.2257H11.6484V97.4676H15.7557V99.0609H11.6484V100.6H16.2053V102.371H9.00317V94.5572ZM17.6609 94.5572H21.5832C22.3553 94.5572 22.9797 94.6535 23.4576 94.8439C23.933 95.0366 24.3261 95.3115 24.637 95.6699C24.9479 96.0306 25.1714 96.4466 25.3128 96.9236C25.4528 97.4007 25.5222 97.9048 25.5222 98.437C25.5222 99.2725 25.4181 99.9199 25.21 100.38C25.0031 100.84 24.7141 101.225 24.3441 101.536C23.9766 101.846 23.5809 102.054 23.157 102.157C22.5776 102.299 22.0534 102.371 21.5832 102.371H17.6609V94.5572ZM20.301 96.3267V100.594H20.9473C21.4997 100.594 21.8915 100.539 22.1254 100.427C22.3566 100.317 22.5403 100.12 22.6739 99.8423C22.805 99.5639 22.8705 99.1103 22.8705 98.484C22.8705 97.6568 22.724 97.0905 22.4285 96.785C22.1318 96.4807 21.6436 96.3267 20.9588 96.3267H20.301ZM32.4674 94.5572H35.1036V99.2161C35.1036 99.6778 35.024 100.113 34.8672 100.524C34.7092 100.933 34.4626 101.293 34.1285 101.601C33.7919 101.908 33.4399 102.123 33.0699 102.249C32.556 102.421 31.9419 102.508 31.2225 102.508C30.8062 102.508 30.3527 102.483 29.862 102.43C29.3699 102.376 28.9601 102.27 28.6299 102.111C28.2997 101.954 27.9978 101.728 27.7229 101.437C27.448 101.145 27.2617 100.846 27.1602 100.537C26.997 100.04 26.9161 99.5991 26.9161 99.2161V94.5572H29.5511V99.3265C29.5511 99.7542 29.6808 100.087 29.9365 100.325C30.1947 100.566 30.5531 100.686 31.0131 100.686C31.4666 100.686 31.8237 100.567 32.0833 100.33C32.3402 100.095 32.4687 99.7589 32.4687 99.3253L32.4674 94.5572ZM42.5383 99.1785L44.8521 99.8176C44.6967 100.411 44.4526 100.906 44.1173 101.304C43.7845 101.704 43.3683 102.002 42.8724 102.204C42.3777 102.409 41.7469 102.508 40.9825 102.508C40.0537 102.508 39.2944 102.385 38.7073 102.139C38.1189 101.893 37.6088 101.457 37.1823 100.835C36.7571 100.212 36.5412 99.4181 36.5412 98.4476C36.5412 97.1551 36.9177 96.1599 37.6692 95.4666C38.4208 94.7722 39.4858 94.4244 40.8605 94.4244C41.9358 94.4244 42.7812 94.623 43.3978 95.0201C44.0145 95.4185 44.4719 96.0306 44.7699 96.8543L42.4394 97.329C42.3572 97.0905 42.2724 96.9166 42.1825 96.805C42.0347 96.6217 41.8536 96.4807 41.6416 96.3796C41.4271 96.2797 41.1881 96.2304 40.9234 96.2304C40.3273 96.2304 39.8674 96.4513 39.5488 96.8907C39.3073 97.2185 39.1865 97.7309 39.1865 98.4312C39.1865 99.2995 39.3317 99.8928 39.6182 100.215C39.9072 100.537 40.3106 100.697 40.8297 100.697C41.3346 100.697 41.7174 100.567 41.9756 100.308C42.2339 100.049 42.4214 99.6731 42.5383 99.1785ZM51.3901 101.081H48.3826L47.9689 102.371H45.2709L48.4815 94.5572H51.3593L54.5724 102.371H51.8089L51.3901 101.081ZM50.8377 99.3899L49.8921 96.5817L48.953 99.3899H50.8377ZM53.9955 94.5572H62.0199V96.4865H59.3258V102.371H56.687V96.4865H53.9955V94.5572ZM63.3188 94.5572H65.964V102.371H63.3188V94.5572ZM67.5249 98.4688C67.5249 97.1927 67.9155 96.1998 68.6915 95.4901C69.4687 94.7792 70.5505 94.4244 71.9354 94.4244C73.3589 94.4244 74.4548 94.7734 75.2243 95.4725C75.9926 96.1681 76.378 97.1481 76.378 98.4041C76.378 99.3171 76.2097 100.067 75.8731 100.652C75.5365 101.236 75.0509 101.691 74.4162 102.014C73.7803 102.342 72.9902 102.501 72.042 102.501C71.0785 102.501 70.2807 102.362 69.6499 102.082C69.0191 101.8 68.5078 101.356 68.1134 100.748C67.7215 100.141 67.5249 99.3805 67.5249 98.4676V98.4688ZM70.1663 98.4793C70.1663 99.2678 70.3256 99.8341 70.6455 100.18C70.9667 100.524 71.4035 100.697 71.956 100.697C72.5225 100.697 72.9619 100.527 73.2715 100.19C73.5824 99.8529 73.7392 99.2466 73.7392 98.3736C73.7392 97.6369 73.576 97.1011 73.2522 96.7603C72.9272 96.4231 72.4891 96.2527 71.9316 96.2527C71.3997 96.2527 70.9719 96.4242 70.6507 96.7685C70.3282 97.114 70.1663 97.6839 70.1663 98.4793ZM77.8169 94.5572H80.2835L83.4992 98.8788V94.5572H85.9877V102.371H83.4992L80.299 98.081V102.371H77.8169V94.5572Z" fill="#2B2A29"/>
<path fill-rule="evenodd" clip-rule="evenodd" d="M30.6327 77.965H27.8449L30.2075 67.6626H26.2428L26.7117 65.5934H37.3711L36.9009 67.6626H32.9876L30.6327 77.965ZM39.2789 77.7817L42.104 65.4113H52.1313L51.6624 67.4793H44.4191L43.7729 70.2876H50.7746L50.3057 72.3567H43.3014L42.4534 75.7149H50.3237L49.8458 77.7829L39.2789 77.7817ZM64.2719 73.3261L67.079 73.7139C66.5305 75.1027 65.7082 76.1684 64.6149 76.9016C63.5204 77.636 62.2369 78.0014 60.7672 78.0014C59.1138 78.0014 57.8175 77.5467 56.8873 76.6373C55.9546 75.7231 55.4883 74.4012 55.4883 72.6705C55.4883 71.2616 55.8017 69.9762 56.4261 68.8082C57.0505 67.6426 57.9177 66.7473 59.0225 66.1292C60.13 65.51 61.3376 65.201 62.6403 65.201C64.1049 65.201 65.2907 65.5594 66.1939 66.2761C67.097 66.9929 67.6302 67.9716 67.7908 69.2089L65.1224 69.4439C64.9747 68.7248 64.692 68.2031 64.2694 67.8812C63.8467 67.5569 63.2865 67.3947 62.5838 67.3947C61.8155 67.3947 61.0961 67.6086 60.4293 68.0339C59.7625 68.4628 59.2294 69.1314 58.8298 70.0396C58.4303 70.9467 58.2286 71.8538 58.2286 72.7609C58.2286 73.7515 58.4894 74.5164 59.011 75.0569C59.5274 75.5962 60.1775 75.8665 60.9548 75.8665C61.6729 75.8665 62.332 75.6514 62.9307 75.2249C63.5319 74.7972 63.9803 74.1639 64.2719 73.3261Z" fill="#FEFEFE"/>
<path fill-rule="evenodd" clip-rule="evenodd" d="M46.9756 39.2182V31.3669H66.6845V47.4667C62.9164 49.8132 59.58 51.4229 56.6765 52.2666C53.7731 53.1196 50.3313 53.5415 46.3513 53.5415C41.4475 53.5415 37.4584 52.7765 34.3725 51.2467C31.2763 49.725 28.8816 47.4479 27.1909 44.4246C25.4887 41.399 24.6331 37.9351 24.6331 34.0212C24.6331 29.8981 25.5658 26.3108 27.4209 23.2593C29.2863 20.2173 32.0073 17.9049 35.593 16.3222C38.3911 15.099 42.1592 14.4927 46.8896 14.4927C51.4465 14.4927 54.86 14.871 57.1275 15.6266C59.3873 16.3833 61.263 17.5524 62.7623 19.1445C64.2525 20.7272 65.3767 22.74 66.127 25.184L53.8206 27.1897C53.3119 25.7644 52.446 24.6752 51.2345 23.9185C50.0333 23.163 48.4852 22.7846 46.6108 22.7846C43.8126 22.7846 41.5824 23.673 39.9187 25.4484C38.2562 27.2332 37.4199 30.0391 37.4199 33.8896C37.4199 37.9786 38.2652 40.8984 39.9495 42.6468C41.6222 44.3976 43.9668 45.2765 46.9769 45.2765C48.4004 45.2765 49.7635 45.0826 51.052 44.7055C52.3509 44.3271 53.8399 43.6844 55.5036 42.7784V39.217H46.9769L46.9756 39.2182Z" fill="#FEFEFE"/>
<path d="M2.16073 115.892L0.78479 111.778H1.57232L2.28792 114.153L2.55514 115.036C2.56542 114.992 2.64378 114.708 2.78639 114.187L3.50327 111.778H4.28566L4.96014 114.163L5.18625 114.95L5.4432 114.155L6.21403 111.778H6.95532L5.54855 115.892H4.75844L4.04285 113.428L3.86684 112.726L2.95854 115.892H2.16073ZM8.42633 115.892L7.05039 111.778H7.83921L8.5548 114.153L8.82074 115.036C8.8323 114.992 8.90938 114.708 9.05327 114.187L9.76887 111.778H10.5525L11.227 114.163L11.4519 114.95L11.7088 114.155L12.4796 111.778H13.2209L11.8141 115.892H11.024L10.3084 113.428L10.1337 112.726L9.22543 115.892H8.4289H8.42633ZM14.6906 115.892L13.3147 111.778H14.1022L14.8178 114.153L15.0838 115.036C15.0966 114.992 15.1737 114.708 15.3176 114.187L16.0332 111.778H16.8156L17.4901 114.163L17.7162 114.95L17.9731 114.155L18.7452 111.778H19.4865L18.0797 115.892H17.2884L16.5715 113.428L16.3968 112.726L15.4885 115.892H14.6919H14.6906ZM19.8629 115.892V115.097H20.7314V115.892H19.8629ZM21.9172 116.232L22.6598 116.332C22.6893 116.541 22.7767 116.694 22.9167 116.792C23.1056 116.92 23.3651 116.984 23.6914 116.984C24.046 116.984 24.3171 116.92 24.5098 116.792C24.7025 116.661 24.831 116.48 24.8991 116.249C24.9389 116.106 24.9569 115.808 24.953 115.353C24.6216 115.712 24.2066 115.892 23.7094 115.892C23.0902 115.892 22.611 115.688 22.2731 115.281C21.9339 114.873 21.7643 114.383 21.7643 113.812C21.7643 113.419 21.8427 113.056 21.9969 112.725C22.1536 112.394 22.3784 112.138 22.6739 111.957C22.9681 111.777 23.315 111.685 23.7133 111.685C24.2439 111.685 24.6819 111.883 25.025 112.275V111.779H25.7303V115.335C25.7303 115.975 25.6583 116.43 25.5144 116.697C25.3718 116.963 25.147 117.176 24.8387 117.33C24.5291 117.485 24.1488 117.562 23.6966 117.562C23.1595 117.562 22.7253 117.451 22.3964 117.231C22.0637 117.01 21.9044 116.678 21.9172 116.234V116.232ZM22.548 113.761C22.548 114.301 22.6649 114.696 22.9 114.942C23.1351 115.19 23.4281 115.314 23.7814 115.314C24.1308 115.314 24.425 115.19 24.6614 114.945C24.8991 114.697 25.0173 114.311 25.0173 113.784C25.0173 113.281 24.8952 112.9 24.6511 112.646C24.407 112.389 24.1128 112.261 23.7672 112.261C23.4293 112.261 23.1416 112.387 22.9026 112.639C22.6662 112.891 22.548 113.266 22.548 113.761ZM28.5464 115.268L28.6569 115.883C28.4423 115.925 28.2509 115.946 28.0813 115.946C27.8038 115.946 27.5906 115.906 27.4377 115.826C27.2861 115.746 27.1782 115.64 27.1165 115.509C27.0548 115.379 27.0227 115.104 27.0227 114.687V112.32H26.4639V111.778H27.0227V110.758L27.782 110.34V111.778H28.5477V112.32H27.782V114.725C27.782 114.925 27.7948 115.052 27.8205 115.109C27.8488 115.166 27.8912 115.21 27.9529 115.245C28.0132 115.278 28.0993 115.295 28.2124 115.295C28.2972 115.295 28.4089 115.287 28.5477 115.268H28.5464ZM32.371 114.567L33.1586 114.654C33.0352 115.077 32.8053 115.403 32.4699 115.637C32.1321 115.867 31.703 115.984 31.1814 115.984C30.5223 115.984 30.002 115.8 29.6166 115.429C29.2299 115.059 29.0384 114.539 29.0384 113.869C29.0384 113.176 29.2337 112.639 29.623 112.257C30.0135 111.875 30.5172 111.684 31.139 111.684C31.7402 111.684 32.2323 111.872 32.6125 112.246C32.9941 112.62 33.1855 113.148 33.1855 113.827C33.1855 113.869 33.183 113.931 33.1804 114.014H29.826C29.8542 114.466 29.9943 114.813 30.2461 115.052C30.4979 115.291 30.8101 115.412 31.1852 115.412C31.464 115.412 31.703 115.344 31.9008 115.209C32.0987 115.075 32.2554 114.862 32.371 114.567ZM29.8684 113.438H32.38C32.3466 113.093 32.249 112.832 32.0922 112.662C31.8494 112.392 31.5347 112.257 31.148 112.257C30.7972 112.257 30.503 112.364 30.2641 112.579C30.0277 112.793 29.8941 113.08 29.8684 113.438ZM37.0526 114.384L37.8028 114.473C37.7206 114.946 37.5125 115.316 37.1746 115.583C36.838 115.851 36.423 115.984 35.931 115.984C35.3156 115.984 34.8184 115.8 34.4459 115.432C34.0733 115.066 33.8857 114.537 33.8857 113.849C33.8857 113.405 33.9654 113.018 34.126 112.684C34.2878 112.35 34.5319 112.1 34.8621 111.933C35.1897 111.767 35.5481 111.684 35.9348 111.684C36.4243 111.684 36.8239 111.798 37.1335 112.024C37.4444 112.249 37.6435 112.569 37.7322 112.986L36.9909 113.09C36.9189 112.814 36.7956 112.606 36.617 112.467C36.4359 112.328 36.2188 112.257 35.9657 112.257C35.5803 112.257 35.2681 112.382 35.0278 112.636C34.7889 112.886 34.6681 113.284 34.6681 113.83C34.6681 114.382 34.7837 114.784 35.0176 115.035C35.2488 115.285 35.5507 115.41 35.9233 115.41C36.2226 115.41 36.4706 115.326 36.6723 115.157C36.8727 114.99 36.9999 114.732 37.0538 114.383L37.0526 114.384ZM41.5337 114.567L42.3212 114.654C42.1966 115.077 41.9679 115.403 41.6326 115.637C41.2947 115.867 40.8656 115.984 40.344 115.984C39.685 115.984 39.1646 115.8 38.7792 115.429C38.3925 115.059 38.2011 114.539 38.2011 113.869C38.2011 113.176 38.3964 112.639 38.7844 112.257C39.1749 111.875 39.6798 111.684 40.3016 111.684C40.9029 111.684 41.3949 111.872 41.7752 112.246C42.1568 112.62 42.3482 113.148 42.3482 113.827C42.3482 113.869 42.3456 113.931 42.343 114.014H38.9886C39.0156 114.466 39.1569 114.813 39.4087 115.052C39.6593 115.291 39.9727 115.412 40.3479 115.412C40.6267 115.412 40.8643 115.344 41.0635 115.209C41.2626 115.075 41.418 114.862 41.5337 114.567ZM39.031 113.438H41.5427C41.5093 113.093 41.4116 112.832 41.2549 112.662C41.0121 112.392 40.696 112.257 40.3106 112.257C39.9612 112.257 39.6657 112.364 39.4267 112.579C39.1878 112.793 39.0567 113.08 39.031 113.438ZM46.1985 115.892V115.372C45.9133 115.781 45.4945 115.984 44.9395 115.984C44.581 115.984 44.2521 115.894 43.9502 115.713C43.6509 115.533 43.4171 115.281 43.2514 114.956C43.0869 114.632 43.0047 114.26 43.0047 113.839C43.0047 113.428 43.0792 113.055 43.2282 112.72C43.3785 112.387 43.6034 112.129 43.9027 111.953C44.202 111.773 44.5361 111.684 44.9074 111.684C45.1771 111.684 45.4187 111.737 45.6294 111.84C45.8426 111.946 46.0148 112.081 46.1471 112.249V110.213H46.9051V115.892H46.1985ZM43.7884 113.839C43.7884 114.365 43.9091 114.76 44.1519 115.021C44.3948 115.281 44.6812 115.411 45.0127 115.411C45.3454 115.411 45.6281 115.287 45.8606 115.037C46.0957 114.788 46.2114 114.408 46.2114 113.897C46.2114 113.333 46.0932 112.92 45.8555 112.657C45.6178 112.392 45.3262 112.261 44.978 112.261C44.6388 112.261 44.3562 112.389 44.1288 112.642C43.9027 112.893 43.7884 113.294 43.7884 113.839ZM51.0535 115.892V115.287C50.7015 115.752 50.2261 115.984 49.6249 115.984C49.3602 115.984 49.1123 115.937 48.881 115.845C48.6523 115.752 48.4815 115.636 48.3697 115.495C48.2566 115.354 48.1783 115.182 48.1346 114.979C48.1038 114.841 48.0883 114.623 48.0883 114.327V111.778H48.8502V114.059C48.8502 114.424 48.8656 114.668 48.8964 114.795C48.9465 114.979 49.0467 115.122 49.2009 115.228C49.3576 115.332 49.5504 115.384 49.7777 115.384C50.0064 115.384 50.221 115.332 50.4214 115.224C50.6218 115.116 50.7644 114.969 50.8479 114.787C50.9301 114.601 50.9725 114.334 50.9725 113.982V111.779H51.7344V115.892H51.0535ZM55.8648 114.384L56.6138 114.473C56.5328 114.946 56.3234 115.316 55.9855 115.583C55.6489 115.851 55.234 115.984 54.7419 115.984C54.1278 115.984 53.6306 115.8 53.2581 115.432C52.8842 115.066 52.6966 114.537 52.6966 113.849C52.6966 113.405 52.7763 113.018 52.9369 112.684C53.0988 112.35 53.3441 112.1 53.673 111.933C54.0006 111.767 54.3604 111.684 54.7458 111.684C55.2353 111.684 55.6348 111.798 55.9444 112.024C56.2553 112.249 56.4545 112.569 56.5431 112.986L55.8018 113.09C55.7312 112.814 55.6065 112.606 55.4267 112.467C55.2481 112.328 55.031 112.257 54.7766 112.257C54.3912 112.257 54.079 112.382 53.8388 112.636C53.5998 112.886 53.4803 113.284 53.4803 113.83C53.4803 114.382 53.5947 114.784 53.8285 115.035C54.0597 115.285 54.3616 115.41 54.7342 115.41C55.0336 115.41 55.2828 115.326 55.4832 115.157C55.6849 114.99 55.8121 114.733 55.8648 114.384ZM60.2033 115.384C59.9194 115.604 59.6483 115.758 59.3875 115.849C59.1254 115.939 58.8453 115.984 58.546 115.984C58.0514 115.984 57.6724 115.874 57.4064 115.653C57.1418 115.432 57.0082 115.149 57.0082 114.807C57.0082 114.605 57.0583 114.421 57.1598 114.255C57.2587 114.088 57.3897 113.955 57.5529 113.853C57.7161 113.753 57.8985 113.676 58.1028 113.625C58.2505 113.59 58.4766 113.555 58.7785 113.52C59.3952 113.454 59.8487 113.374 60.139 113.281C60.1416 113.184 60.1442 113.125 60.1442 113.097C60.1442 112.814 60.071 112.613 59.9271 112.498C59.7331 112.34 59.4427 112.261 59.0586 112.261C58.7002 112.261 58.4355 112.32 58.2633 112.434C58.0938 112.549 57.9679 112.752 57.8856 113.045L57.1405 112.951C57.2086 112.659 57.3191 112.423 57.4745 112.244C57.63 112.065 57.8548 111.926 58.1477 111.83C58.4419 111.732 58.7811 111.684 59.1678 111.684C59.5519 111.684 59.8641 111.725 60.1031 111.809C60.3433 111.892 60.5193 111.994 60.6337 112.12C60.748 112.246 60.8251 112.403 60.8713 112.595C60.8957 112.713 60.9086 112.928 60.9086 113.237V114.167C60.9086 114.817 60.924 115.225 60.9574 115.397C60.9895 115.57 61.0538 115.734 61.1514 115.892H60.3549C60.2765 115.747 60.2238 115.578 60.2033 115.384ZM60.139 113.826C59.8615 113.931 59.4466 114.018 58.8942 114.09C58.5807 114.131 58.3584 114.177 58.2287 114.229C58.0989 114.28 57.9974 114.356 57.9293 114.457C57.8574 114.554 57.8214 114.666 57.8214 114.786C57.8214 114.972 57.8998 115.128 58.0527 115.251C58.2055 115.375 58.4316 115.437 58.7284 115.437C59.0213 115.437 59.2834 115.378 59.5121 115.261C59.7395 115.143 59.9091 114.982 60.0157 114.779C60.0992 114.621 60.139 114.388 60.139 114.082V113.825V113.826ZM63.7568 115.268L63.866 115.883C63.6528 115.925 63.4601 115.946 63.2918 115.946C63.0143 115.946 62.7997 115.906 62.6468 115.826C62.4939 115.746 62.3873 115.64 62.3257 115.509C62.264 115.379 62.2319 115.104 62.2319 114.687V112.32H61.6717V111.778H62.2319V110.758L62.9911 110.34V111.778H63.7568V112.32H62.9911V114.725C62.9911 114.925 63.004 115.052 63.0297 115.109C63.0567 115.166 63.1003 115.21 63.1607 115.245C63.2224 115.278 63.3085 115.295 63.4215 115.295C63.5063 115.295 63.6181 115.287 63.7568 115.268ZM64.5058 111.014V110.213H65.269V111.014H64.5058ZM64.5058 115.892V111.778H65.269V115.892H64.5058ZM66.1451 113.833C66.1451 113.073 66.3764 112.508 66.8415 112.141C67.2269 111.838 67.6984 111.684 68.2559 111.684C68.8739 111.684 69.3801 111.87 69.7719 112.241C70.165 112.61 70.3603 113.122 70.3603 113.775C70.3603 114.305 70.2742 114.723 70.0995 115.026C69.9261 115.329 69.673 115.564 69.3428 115.733C69.0101 115.9 68.6478 115.984 68.2559 115.984C67.6264 115.984 67.1164 115.8 66.7284 115.43C66.3391 115.06 66.1451 114.529 66.1451 113.832V113.833ZM66.9288 113.833C66.9288 114.362 67.0547 114.755 67.3065 115.017C67.5583 115.281 67.8744 115.411 68.2559 115.411C68.6336 115.411 68.9497 115.279 69.2002 115.016C69.4507 114.753 69.5766 114.35 69.5766 113.811C69.5766 113.303 69.4507 112.915 69.1964 112.653C68.9445 112.391 68.6298 112.261 68.2559 112.261C67.8744 112.261 67.5583 112.391 67.3065 112.651C67.0547 112.912 66.9288 113.305 66.9288 113.832V113.833ZM71.2545 115.892V111.778H71.9405V112.362C72.272 111.911 72.7486 111.684 73.3717 111.684C73.6441 111.684 73.892 111.729 74.1194 111.818C74.3481 111.907 74.5177 112.024 74.6294 112.168C74.7425 112.313 74.8222 112.485 74.8684 112.684C74.8954 112.813 74.9095 113.04 74.9095 113.362V115.892H74.1451V113.388C74.1451 113.105 74.1181 112.893 74.0577 112.751C73.9999 112.61 73.8933 112.498 73.7417 112.415C73.5901 112.33 73.4141 112.288 73.2111 112.288C72.8861 112.288 72.6073 112.383 72.3696 112.571C72.1345 112.76 72.0176 113.117 72.0176 113.645V115.892H71.2545ZM76.2957 115.892V115.097H77.1642V115.892H76.2957ZM81.4256 114.384L82.1746 114.473C82.0937 114.946 81.8843 115.316 81.5451 115.583C81.2085 115.851 80.7936 115.984 80.3015 115.984C79.6874 115.984 79.1915 115.8 78.8177 115.432C78.4438 115.066 78.2562 114.537 78.2562 113.849C78.2562 113.405 78.3372 113.018 78.4978 112.684C78.6596 112.35 78.9037 112.1 79.2339 111.933C79.5615 111.767 79.9212 111.684 80.3067 111.684C80.7948 111.684 81.1957 111.798 81.5053 112.024C81.8162 112.249 82.0153 112.569 82.104 112.986L81.3614 113.09C81.2908 112.814 81.1674 112.606 80.9876 112.467C80.8077 112.328 80.5919 112.257 80.3362 112.257C79.9533 112.257 79.6399 112.382 79.3996 112.636C79.1607 112.886 79.0399 113.284 79.0399 113.83C79.0399 114.382 79.1555 114.784 79.3881 115.035C79.6193 115.285 79.9212 115.41 80.2951 115.41C80.5944 115.41 80.8437 115.326 81.0441 115.157C81.2458 114.99 81.373 114.732 81.4269 114.383L81.4256 114.384ZM82.5434 113.833C82.5434 113.073 82.7746 112.508 83.2384 112.141C83.6238 111.838 84.0953 111.684 84.6529 111.684C85.2721 111.684 85.7757 111.87 86.1701 112.241C86.5633 112.61 86.7585 113.122 86.7585 113.775C86.7585 114.305 86.6712 114.723 86.4977 115.026C86.3243 115.329 86.0712 115.564 85.7397 115.733C85.407 115.9 85.046 115.984 84.6529 115.984C84.0246 115.984 83.5146 115.8 83.1266 115.43C82.7374 115.06 82.5434 114.529 82.5434 113.832V113.833ZM83.327 113.833C83.327 114.362 83.4529 114.755 83.7047 115.017C83.9566 115.281 84.2726 115.411 84.6529 115.411C85.0319 115.411 85.3466 115.279 85.5984 115.016C85.8489 114.753 85.9749 114.35 85.9749 113.811C85.9749 113.303 85.849 112.915 85.5959 112.653C85.3428 112.391 85.0293 112.261 84.6529 112.261C84.2726 112.261 83.9566 112.391 83.7047 112.651C83.4517 112.912 83.3258 113.305 83.3258 113.832L83.327 113.833ZM87.6527 115.892V111.778H88.3323V112.354C88.4762 112.153 88.6638 111.991 88.8976 111.87C89.1314 111.746 89.3999 111.684 89.6993 111.684C90.0307 111.684 90.3044 111.747 90.5164 111.873C90.7296 112.001 90.8812 112.177 90.9686 112.404C91.3257 111.924 91.7882 111.684 92.3561 111.684C92.8044 111.684 93.1475 111.798 93.3877 112.024C93.628 112.249 93.7474 112.598 93.7474 113.067V115.892H92.9894V113.3C92.9894 113.021 92.965 112.819 92.9162 112.697C92.8648 112.576 92.7762 112.477 92.6451 112.401C92.5167 112.328 92.3638 112.289 92.1878 112.289C91.8704 112.289 91.6084 112.385 91.399 112.579C91.1921 112.771 91.0855 113.079 91.0855 113.502V115.893H90.3236V113.221C90.3236 112.909 90.262 112.677 90.1374 112.522C90.0127 112.368 89.8098 112.289 89.5271 112.289C89.3126 112.289 89.1147 112.341 88.9336 112.445C88.7511 112.548 88.6175 112.699 88.5366 112.897C88.4544 113.096 88.4133 113.384 88.4133 113.758V115.892H87.6527Z" fill="#2B2A29"/>
<path d="M95.5831 3.20445V0.523093H94.6851V0.163544H96.846V0.523093H95.9441V3.20445H95.5831ZM97.1993 3.20445V0.163544H97.7427L98.3889 2.31732L98.5187 2.76734C98.5495 2.65454 98.5983 2.4924 98.6638 2.27972L99.3165 0.163544H99.8021V3.20445H99.4539V0.659395L98.6613 3.20445H98.3375L97.5474 0.617096V3.20445H97.1993Z" fill="#2B2A29"/>
</svg>
